<svg width="1886" height="549" viewBox="0 0 1886 549" fill="none" xmlns="http://www.w3.org/2000/svg">
<mask id="mask0_689_10236" style="mask-type:luminance" maskUnits="userSpaceOnUse" x="0" y="0" width="1886" height="549">
<rect width="1886" height="549" rx="12" fill="white"/>
</mask>
<g mask="url(#mask0_689_10236)">
<path opacity="0.02" d="M1623.55 1148.26C1760.43 1084.34 1757.26 976.412 1738.56 930.437L1496.59 222.504L-939.291 1055.09L-697.319 1763.02C-683.961 1810.82 -620.402 1898.11 -473.037 1864.88C-288.831 1823.34 -270.687 1892.11 -224.904 1937.16C-179.121 1982.21 -117.334 2021.78 19.958 1926.66C157.25 1831.53 301.174 1766.27 449.772 1829.73C568.65 1880.5 659.816 1859.69 692.172 1848.63C724.528 1837.57 809.357 1798.22 872.29 1685.31C950.957 1544.18 1104.72 1507.69 1271.51 1498.88C1438.3 1490.06 1462.94 1420.95 1471.57 1357.3C1480.2 1293.66 1452.46 1228.17 1623.55 1148.26Z" fill="black"/>
<path d="M1521.72 987.51C1625.34 906.406 1601.47 815.432 1576.59 780.083L1232.33 226.77L-671.527 1411.29L-327.273 1964.6C-306.558 2002.55 -235.492 2064.15 -116.951 2007.04C31.2259 1935.64 60.1184 1990.45 107.811 2019.69C155.503 2048.94 215.705 2070.4 313.553 1962.74C411.402 1855.07 520.74 1771.45 659.299 1796.14C770.146 1815.9 843.432 1780.36 868.721 1764.62C894.01 1748.89 958.28 1698.85 989.535 1590.68C1028.6 1455.47 1151.93 1394.34 1291.75 1354.13C1431.57 1313.93 1438.92 1250.44 1433.76 1194.73C1428.6 1139.02 1392.2 1088.89 1521.72 987.51Z" fill="black"/>
<path d="M1521.72 987.51C1625.34 906.406 1601.47 815.432 1576.59 780.083L1232.33 226.77L-671.527 1411.29L-327.273 1964.6C-306.558 2002.55 -235.492 2064.15 -116.951 2007.04C31.2259 1935.64 60.1184 1990.45 107.811 2019.69C155.503 2048.94 215.705 2070.4 313.553 1962.74C411.402 1855.07 520.74 1771.45 659.299 1796.14C770.146 1815.9 843.432 1780.36 868.721 1764.62C894.01 1748.89 958.28 1698.85 989.535 1590.68C1028.6 1455.47 1151.93 1394.34 1291.75 1354.13C1431.57 1313.93 1438.92 1250.44 1433.76 1194.73C1428.6 1139.02 1392.2 1088.89 1521.72 987.51Z" fill="url(#paint0_linear_689_10236)"/>
<path d="M1546.61 244.079C1604.64 125.983 1543.59 54.4432 1505.8 33.4353L955.169 -315.085L-244.033 1579.56L306.603 1928.08C341.758 1953.24 432.545 1977.81 514.447 1874.82C616.824 1746.09 666.677 1782.87 722.342 1788.46C778.007 1794.06 841.551 1787.2 882.835 1647.69C924.119 1508.19 986.206 1385.33 1121.72 1347.31C1230.12 1316.9 1280.66 1253.01 1296.59 1227.85C1312.51 1202.68 1348.63 1129.67 1329.72 1018.68C1306.1 879.929 1390.56 771.241 1498.98 674.228C1607.4 577.215 1586.41 516.849 1557.53 468.932C1528.65 421.015 1474.07 391.699 1546.61 244.079Z" fill="black"/>
<path d="M1546.61 244.079C1604.64 125.983 1543.59 54.4432 1505.8 33.4353L955.169 -315.085L-244.033 1579.56L306.603 1928.08C341.758 1953.24 432.545 1977.81 514.447 1874.82C616.824 1746.09 666.677 1782.87 722.342 1788.46C778.007 1794.06 841.551 1787.2 882.835 1647.69C924.119 1508.19 986.206 1385.33 1121.72 1347.31C1230.12 1316.9 1280.66 1253.01 1296.59 1227.85C1312.51 1202.68 1348.63 1129.67 1329.72 1018.68C1306.1 879.929 1390.56 771.241 1498.98 674.228C1607.4 577.215 1586.41 516.849 1557.53 468.932C1528.65 421.015 1474.07 391.699 1546.61 244.079Z" fill="url(#paint1_linear_689_10236)"/>
<path d="M1203.32 756.992C1278.74 649.161 1229.34 569.124 1195.22 542.585L704.367 113.943L-770.517 1802.88L-643.192 2007.13C-612.298 2037.37 -526.336 2075.53 -429.646 1986.28C-308.783 1874.72 -265.143 1918.7 -210.988 1932.74C-156.834 1946.78 207.747 2110.97 334.601 2032.75C458.44 1956.4 474.954 1799.1 614.685 1782.26C726.47 1768.78 786.179 1713.38 805.77 1690.94C825.36 1668.51 872.214 1601.88 870.512 1489.3C868.385 1348.57 968.481 1254.08 1090.46 1174.79C1212.45 1095.51 1200.93 1032.64 1179.72 980.868C1158.51 929.098 1109.06 891.78 1203.32 756.992Z" fill="black"/>
<path d="M1203.32 756.992C1278.74 649.161 1229.34 569.124 1195.22 542.585L704.367 113.943L-770.517 1802.88L-643.192 2007.13C-612.298 2037.37 -526.336 2075.53 -429.646 1986.28C-308.783 1874.72 -265.143 1918.7 -210.988 1932.74C-156.834 1946.78 207.747 2110.97 334.601 2032.75C458.44 1956.4 474.954 1799.1 614.685 1782.26C726.47 1768.78 786.179 1713.38 805.77 1690.94C825.36 1668.51 872.214 1601.88 870.512 1489.3C868.385 1348.57 968.481 1254.08 1090.46 1174.79C1212.45 1095.51 1200.93 1032.64 1179.72 980.868C1158.51 929.098 1109.06 891.78 1203.32 756.992Z" fill="url(#paint2_linear_689_10236)"/>
<path opacity="0.02" d="M1089.11 369.264C952.233 305.342 955.401 197.412 974.094 151.437L1216.07 -556.496L3651.95 276.09L3409.98 984.023C3396.62 1031.82 3333.06 1119.11 3185.7 1085.88C3001.49 1044.34 2983.35 1113.11 2937.56 1158.16C2891.78 1203.21 2829.99 1242.78 2692.7 1147.66C2555.41 1052.53 2411.48 987.271 2262.89 1050.73C2144.01 1101.5 2052.84 1080.69 2020.49 1069.63C1988.13 1058.57 1903.3 1019.22 1840.37 906.313C1761.7 765.175 1607.94 728.687 1441.15 719.875C1274.36 711.064 1249.72 641.948 1241.09 578.303C1232.45 514.657 1260.2 449.165 1089.11 369.264Z" fill="black"/>
<path d="M1190.94 208.51C1087.32 127.406 1111.19 36.4324 1136.07 1.08343L1480.32 -552.23L3384.18 632.291L3039.93 1185.6C3019.22 1223.55 2948.15 1285.15 2829.61 1228.04C2681.43 1156.64 2652.54 1211.45 2604.85 1240.69C2557.15 1269.94 2496.95 1291.4 2399.1 1183.74C2301.26 1076.07 2191.92 992.447 2053.36 1017.14C1942.51 1036.9 1869.23 1001.36 1843.94 985.624C1818.65 969.89 1754.38 919.852 1723.12 811.683C1684.06 676.471 1560.73 615.336 1420.91 575.131C1281.08 534.927 1273.74 471.438 1278.9 415.731C1284.06 360.024 1320.46 309.889 1190.94 208.51Z" fill="black"/>
<path d="M1190.94 208.51C1087.32 127.406 1111.19 36.4324 1136.07 1.08343L1480.32 -552.23L3384.18 632.291L3039.93 1185.6C3019.22 1223.55 2948.15 1285.15 2829.61 1228.04C2681.43 1156.64 2652.54 1211.45 2604.85 1240.69C2557.15 1269.94 2496.95 1291.4 2399.1 1183.74C2301.26 1076.07 2191.92 992.447 2053.36 1017.14C1942.51 1036.9 1869.23 1001.36 1843.94 985.624C1818.65 969.89 1754.38 919.852 1723.12 811.683C1684.06 676.471 1560.73 615.336 1420.91 575.131C1281.08 534.927 1273.74 471.438 1278.9 415.731C1284.06 360.024 1320.46 309.889 1190.94 208.51Z" fill="url(#paint3_linear_689_10236)"/>
<path d="M1166.05 -534.921C1108.02 -653.017 1169.07 -724.557 1206.85 -745.565L1757.49 -1094.09L2956.69 800.562L2406.06 1149.08C2370.9 1174.24 2280.11 1198.81 2198.21 1095.82C2095.83 967.086 2045.98 1003.87 1990.32 1009.46C1934.65 1015.06 1871.11 1008.2 1829.82 868.694C1788.54 729.187 1726.45 606.335 1590.94 568.313C1482.53 537.896 1432 474.015 1416.07 448.848C1400.14 423.681 1364.03 350.672 1382.93 239.675C1406.56 100.929 1322.1 -7.75868 1213.68 -104.772C1105.26 -201.785 1126.25 -262.151 1155.13 -310.068C1184.01 -357.985 1238.59 -387.301 1166.05 -534.921Z" fill="black"/>
<path d="M1166.05 -534.921C1108.02 -653.017 1169.07 -724.557 1206.85 -745.565L1757.49 -1094.09L2956.69 800.562L2406.06 1149.08C2370.9 1174.24 2280.11 1198.81 2198.21 1095.82C2095.83 967.086 2045.98 1003.87 1990.32 1009.46C1934.65 1015.06 1871.11 1008.2 1829.82 868.694C1788.54 729.187 1726.45 606.335 1590.94 568.313C1482.53 537.896 1432 474.015 1416.07 448.848C1400.14 423.681 1364.03 350.672 1382.93 239.675C1406.56 100.929 1322.1 -7.75868 1213.68 -104.772C1105.26 -201.785 1126.25 -262.151 1155.13 -310.068C1184.01 -357.985 1238.59 -387.301 1166.05 -534.921Z" fill="url(#paint4_linear_689_10236)"/>
<path d="M1509.33 -22.0084C1433.92 -129.839 1483.32 -209.876 1517.44 -236.415L2008.29 -665.057L3483.18 1023.88L3355.85 1228.13C3324.96 1258.37 3238.99 1296.53 3142.3 1207.28C3021.44 1095.72 2977.8 1139.7 2923.65 1153.74C2869.49 1167.78 2504.91 1331.97 2378.06 1253.75C2254.22 1177.4 2237.7 1020.1 2097.97 1003.26C1986.19 989.777 1926.48 934.377 1906.89 911.943C1887.3 889.508 1840.44 822.881 1842.15 710.3C1844.27 569.573 1744.18 475.083 1622.2 395.794C1500.21 316.505 1511.73 253.639 1532.94 201.868C1554.14 150.098 1603.6 112.78 1509.33 -22.0084Z" fill="black"/>
<path d="M1509.33 -22.0084C1433.92 -129.839 1483.32 -209.876 1517.44 -236.415L2008.29 -665.057L3483.18 1023.88L3355.85 1228.13C3324.96 1258.37 3238.99 1296.53 3142.3 1207.28C3021.44 1095.72 2977.8 1139.7 2923.65 1153.74C2869.49 1167.78 2504.91 1331.97 2378.06 1253.75C2254.22 1177.4 2237.7 1020.1 2097.97 1003.26C1986.19 989.777 1926.48 934.377 1906.89 911.943C1887.3 889.508 1840.44 822.881 1842.15 710.3C1844.27 569.573 1744.18 475.083 1622.2 395.794C1500.21 316.505 1511.73 253.639 1532.94 201.868C1554.14 150.098 1603.6 112.78 1509.33 -22.0084Z" fill="url(#paint5_linear_689_10236)"/>
<path opacity="0.02" d="M-1256.37 893.003C-1422.1 983.041 -1388.91 1088.15 -1351.59 1129.45L-838.275 1774.6L2193.07 471.056L1679.76 -174.088C1649.08 -218.244 1540.73 -291.037 1352.74 -228.967C1117.75 -151.379 1075.05 -215.127 1001.79 -250.093C928.523 -285.059 835.342 -311.46 677.424 -190.766C519.507 -70.0729 344.711 22.6881 129.126 -9.72779C-43.3418 -35.6605 -159.573 2.9823 -199.838 20.2972C-240.104 37.6121 -342.891 93.1519 -396.679 216.379C-463.913 370.413 -659.571 436.955 -880.074 478.99C-1100.58 521.025 -1114.95 593.675 -1109.4 657.761C-1103.85 721.846 -1049.2 780.456 -1256.37 893.003Z" fill="black"/>
<path d="M-910.9 1763.48C-956.747 1890.8 -855.965 1948.67 -799.843 1961.68L29.4447 2192.88L1123.32 96.4341L294.031 -134.761C240.305 -152.369 112.404 -158.258 30.6071 -40.9534C-71.6383 105.677 -148.123 79.6201 -224.003 85.2882C-299.883 90.9563 -382.95 110.399 -400.672 255.348C-418.395 400.298 -468.383 533.097 -639.245 597.486C-775.935 648.997 -826.312 721.705 -840.842 749.552C-855.372 777.399 -884.029 856.162 -828.984 961.127C-760.178 1092.33 -843.87 1215.74 -962.702 1332.5C-1081.53 1449.26 -1037.28 1504.2 -985.834 1545.36C-934.39 1586.53 -853.593 1604.32 -910.9 1763.48Z" fill="black"/>
<path d="M-910.9 1763.48C-956.747 1890.8 -855.965 1948.67 -799.843 1961.68L29.4447 2192.88L1123.32 96.4341L294.031 -134.761C240.305 -152.369 112.404 -158.258 30.6071 -40.9534C-71.6383 105.677 -148.123 79.6201 -224.003 85.2882C-299.883 90.9563 -382.95 110.399 -400.672 255.348C-418.395 400.298 -468.383 533.097 -639.245 597.486C-775.935 648.997 -826.312 721.705 -840.842 749.552C-855.372 777.399 -884.029 856.162 -828.984 961.127C-760.178 1092.33 -843.87 1215.74 -962.702 1332.5C-1081.53 1449.26 -1037.28 1504.2 -985.834 1545.36C-934.39 1586.53 -853.593 1604.32 -910.9 1763.48Z" fill="url(#paint6_linear_689_10236)"/>
<path d="M-477.206 1225.94C-543.357 1349.06 -419.783 1432.64 -349.727 1459.04L682.943 1889.93L2200.39 -60.1688L1882.95 -273.38C1816.22 -304.054 1655.02 -339.289 1544.11 -234.852C1405.46 -104.304 1310.52 -149.01 1214.3 -160.306C1118.07 -171.603 433.173 -323.584 266.948 -228.94C104.674 -136.546 161.386 36.1258 -58.6249 64.8317C-234.634 87.7964 -302.976 152.602 -323.132 178.506C-343.288 204.409 -384.584 280.5 -321.835 403.088C-243.399 556.324 -357.105 666.726 -514.775 762.18C-672.444 857.633 -620.088 925.306 -557.763 980.165C-495.437 1035.03 -394.517 1072.04 -477.206 1225.94Z" fill="black"/>
<path d="M-477.206 1225.94C-543.357 1349.06 -419.783 1432.64 -349.727 1459.04L682.943 1889.93L2200.39 -60.1688L1882.95 -273.38C1816.22 -304.054 1655.02 -339.289 1544.11 -234.852C1405.46 -104.304 1310.52 -149.01 1214.3 -160.306C1118.07 -171.603 433.173 -323.584 266.948 -228.94C104.674 -136.546 161.386 36.1258 -58.6249 64.8317C-234.634 87.7964 -302.976 152.602 -323.132 178.506C-343.288 204.409 -384.584 280.5 -321.835 403.088C-243.399 556.324 -357.105 666.726 -514.775 762.18C-672.444 857.633 -620.088 925.306 -557.763 980.165C-495.437 1035.03 -394.517 1072.04 -477.206 1225.94Z" fill="url(#paint7_linear_689_10236)"/>
<path opacity="0.02" d="M-79.665 -50.1783C-181.299 -161.943 -283.435 -126.913 -321.799 -95.4276L-926.141 345.584L591.308 2425.02L1195.65 1984.01C1237.34 1957.08 1301.85 1870.5 1226.42 1739.62C1132.12 1576.01 1192.42 1538.29 1221.87 1481.21C1251.31 1424.13 1270.79 1353.38 1139.23 1250.47C1007.67 1147.57 902.669 1029.47 919.21 868.734C932.443 740.148 885.539 659.252 865.382 631.631C845.226 604.01 782.493 534.664 656 508.042C497.883 474.765 417.442 338.742 359.568 182.063C301.694 25.3833 228.381 22.3495 165.038 32.9783C101.696 43.6071 47.3773 89.5272 -79.665 -50.1783Z" fill="black"/>
<path d="M-202.994 94.7398C-311.175 19.832 -390.98 69.6003 -417.36 103.848L-843.707 596.692L852.088 2063.68L1278.43 1570.84C1308.53 1539.8 1346.29 1453.66 1256.59 1357.39C1144.47 1237.05 1188.24 1193.2 1202.03 1138.98C1215.82 1084.77 1218.47 1020.91 1086.63 959.385C954.788 897.864 842.505 818.24 825.005 678.589C811.006 566.868 755.327 507.419 732.802 487.933C710.277 468.447 643.432 421.905 530.859 424.131C390.144 426.915 295.188 327.261 215.331 205.65C135.474 84.0393 72.6615 95.8493 20.9909 117.298C-30.6796 138.746 -67.7672 188.375 -202.994 94.7398Z" fill="black"/>
<path d="M-202.994 94.7398C-311.175 19.832 -390.98 69.6003 -417.36 103.848L-843.707 596.692L852.088 2063.68L1278.43 1570.84C1308.53 1539.8 1346.29 1453.66 1256.59 1357.39C1144.47 1237.05 1188.24 1193.2 1202.03 1138.98C1215.82 1084.77 1218.47 1020.91 1086.63 959.385C954.788 897.864 842.505 818.24 825.005 678.589C811.006 566.868 755.327 507.419 732.802 487.933C710.277 468.447 643.432 421.905 530.859 424.131C390.144 426.915 295.188 327.261 215.331 205.65C135.474 84.0393 72.6615 95.8493 20.9909 117.298C-30.6796 138.746 -67.7672 188.375 -202.994 94.7398Z" fill="url(#paint8_linear_689_10236)"/>
<path d="M-920.368 291.417C-1050.36 271.014 -1100.58 350.538 -1109.44 392.85L-1279 1022.07L886.027 1605.52L1055.59 976.299C1069.19 935.265 1065.74 841.277 943.095 793.597C789.793 733.998 810.14 675.479 798.975 620.66C787.81 565.84 762.42 507.186 616.946 509.127C471.472 511.068 335.735 488.203 259.24 370.062C198.045 275.549 122.052 246.232 93.2944 238.482C64.5363 230.732 -15.8975 217.894 -116.297 268.859C-241.797 332.565 -370.643 284.128 -495.443 209.352C-620.242 134.576 -671.666 172.529 -708.866 214.315C-746.065 256.101 -757.877 316.92 -920.368 291.417Z" fill="black"/>
<path d="M-920.368 291.417C-1050.36 271.014 -1100.58 350.538 -1109.44 392.85L-1279 1022.07L886.027 1605.52L1055.59 976.299C1069.19 935.265 1065.74 841.277 943.095 793.597C789.793 733.998 810.14 675.479 798.975 620.66C787.81 565.84 762.42 507.186 616.946 509.127C471.472 511.068 335.735 488.203 259.24 370.062C198.045 275.549 122.052 246.232 93.2944 238.482C64.5363 230.732 -15.8975 217.894 -116.297 268.859C-241.797 332.565 -370.643 284.128 -495.443 209.352C-620.242 134.576 -671.666 172.529 -708.866 214.315C-746.065 256.101 -757.877 316.92 -920.368 291.417Z" fill="url(#paint9_linear_689_10236)"/>
<path d="M-328.73 467.17C-454.073 427.125 -515.862 498.032 -531.09 538.491L-794.901 1134.37L1255.42 2042.1L1412.73 1859.94C1432.44 1821.46 1443.4 1728.05 1329.49 1662.18C1187.11 1579.83 1216.17 1525.11 1213.52 1469.23C1210.87 1413.35 1259.57 1016.48 1147.25 918.522C1037.61 822.894 882.494 853.766 824.97 725.315C778.951 622.554 708.336 581.959 681.102 569.901C653.868 557.844 576.344 532.855 469.33 567.863C335.563 611.624 215.642 544.05 103.748 451.065C-8.14599 358.08 -64.7703 387.721 -107.923 423.326C-151.076 458.931 -172.052 517.227 -328.73 467.17Z" fill="black"/>
<path d="M-328.73 467.17C-454.073 427.125 -515.862 498.032 -531.09 538.491L-794.901 1134.37L1255.42 2042.1L1412.73 1859.94C1432.44 1821.46 1443.4 1728.05 1329.49 1662.18C1187.11 1579.83 1216.17 1525.11 1213.52 1469.23C1210.87 1413.35 1259.57 1016.48 1147.25 918.522C1037.61 822.894 882.494 853.766 824.97 725.315C778.951 622.554 708.336 581.959 681.102 569.901C653.868 557.844 576.344 532.855 469.33 567.863C335.563 611.624 215.642 544.05 103.748 451.065C-8.14599 358.08 -64.7703 387.721 -107.923 423.326C-151.076 458.931 -172.052 517.227 -328.73 467.17Z" fill="url(#paint10_linear_689_10236)"/>
<path opacity="0.02" d="M370.915 785.498C221.752 809.396 195.175 914.051 200.532 963.391L238.903 1710.55L2809.76 1578.52L2771.39 831.359C2771.66 781.73 2734.5 680.349 2583.67 671.857C2395.14 661.242 2396.57 590.129 2364.91 534.247C2333.25 478.364 2284.7 423.349 2126.57 477.139C1968.44 530.928 1812.13 554.179 1686.66 452.371C1586.28 370.925 1492.9 365.911 1458.75 367.664C1424.61 369.418 1332.23 383.972 1240.73 475.273C1126.34 589.399 968.475 582.283 805.669 544.976C642.862 507.669 600.202 567.368 574.432 626.2C548.663 685.032 557.369 755.625 370.915 785.498Z" fill="black"/>
<path d="M424.713 968.028C302.814 1017.58 300.793 1111.61 315.02 1152.43L494.184 1778.98L2650.04 1162.5L2470.88 535.953C2461.37 493.781 2409.95 415.034 2280.28 437.422C2118.2 465.405 2105.46 404.774 2067.63 363.562C2029.79 322.349 1977.79 285.187 1854.15 361.862C1730.51 438.536 1602.42 488.937 1475.96 427.157C1374.79 377.733 1294.56 391.799 1265.93 399.987C1237.29 408.176 1161.76 438.652 1102.01 534.089C1027.33 653.385 891.962 678.322 746.475 678.605C600.989 678.888 576.498 737.923 566.172 792.907C555.846 847.891 577.086 906.092 424.713 968.028Z" fill="black"/>
<path d="M424.713 968.028C302.814 1017.58 300.793 1111.61 315.02 1152.43L494.184 1778.98L2650.04 1162.5L2470.88 535.953C2461.37 493.781 2409.95 415.034 2280.28 437.422C2118.2 465.405 2105.46 404.774 2067.63 363.562C2029.79 322.349 1977.79 285.187 1854.15 361.862C1730.51 438.536 1602.42 488.937 1475.96 427.157C1374.79 377.733 1294.56 391.799 1265.93 399.987C1237.29 408.176 1161.76 438.652 1102.01 534.089C1027.33 653.385 891.962 678.322 746.475 678.605C600.989 678.888 576.498 737.923 566.172 792.907C555.846 847.891 577.086 906.092 424.713 968.028Z" fill="url(#paint11_linear_689_10236)"/>
<path d="M196.727 1676.07C108.511 1773.71 147.586 1859.26 178.151 1889.83L611.981 2376.1L2285.15 883.361L1851.32 397.091C1824.42 363.251 1743.87 314.709 1636.84 391.261C1503.06 486.952 1465.22 437.897 1413.23 417.24C1361.24 396.584 1298.25 385.736 1220.26 508.553C1142.27 631.371 1048.85 732.464 908.111 731.832C795.518 731.326 729.392 778.884 707.167 798.712C684.942 818.54 630.179 878.834 617.889 990.756C602.526 1130.66 491.473 1211.99 360.59 1275.52C229.707 1339.05 233.329 1402.86 247.945 1456.86C262.56 1510.86 306.998 1554.03 196.727 1676.07Z" fill="black"/>
<path d="M196.727 1676.07C108.511 1773.71 147.586 1859.26 178.151 1889.83L611.981 2376.1L2285.15 883.361L1851.32 397.091C1824.42 363.251 1743.87 314.709 1636.84 391.261C1503.06 486.952 1465.22 437.897 1413.23 417.24C1361.24 396.584 1298.25 385.736 1220.26 508.553C1142.27 631.371 1048.85 732.464 908.111 731.832C795.518 731.326 729.392 778.884 707.167 798.712C684.942 818.54 630.179 878.834 617.889 990.756C602.526 1130.66 491.473 1211.99 360.59 1275.52C229.707 1339.05 233.329 1402.86 247.945 1456.86C262.56 1510.86 306.998 1554.03 196.727 1676.07Z" fill="url(#paint12_linear_689_10236)"/>
<path d="M667.61 1277.08C565.498 1360.07 591.029 1450.59 616.558 1485.48L970.907 2032.38L2852.71 813.128L2786.34 581.773C2764.93 544.216 2692.74 483.925 2575.27 543.207C2428.43 617.31 2398.54 563.044 2350.31 534.678C2302.09 506.313 1996.58 248.364 1853.13 288.757C1713.09 328.19 1654.04 474.91 1515.05 452.759C1403.86 435.037 1331.24 471.922 1306.24 488.117C1281.24 504.313 1217.9 555.521 1188.64 664.246C1152.06 800.152 1029.87 863.54 890.811 906.303C751.751 949.066 745.57 1012.68 751.754 1068.28C757.937 1123.88 795.25 1173.34 667.61 1277.08Z" fill="black"/>
<path d="M667.61 1277.08C565.498 1360.07 591.029 1450.59 616.558 1485.48L970.907 2032.38L2852.71 813.128L2786.34 581.773C2764.93 544.216 2692.74 483.925 2575.27 543.207C2428.43 617.31 2398.54 563.044 2350.31 534.678C2302.09 506.313 1996.58 248.364 1853.13 288.757C1713.09 328.19 1654.04 474.91 1515.05 452.759C1403.86 435.037 1331.24 471.922 1306.24 488.117C1281.24 504.313 1217.9 555.521 1188.64 664.246C1152.06 800.152 1029.87 863.54 890.811 906.303C751.751 949.066 745.57 1012.68 751.754 1068.28C757.937 1123.88 795.25 1173.34 667.61 1277.08Z" fill="url(#paint13_linear_689_10236)"/>
</g>
<defs>
<linearGradient id="paint0_linear_689_10236" x1="2416.61" y1="671.911" x2="-363.445" y2="2235.04" gradientUnits="userSpaceOnUse">
<stop stop-color="#ED374D"/>
<stop offset="0.505208" stop-color="#FA793F"/>
<stop offset="1" stop-color="#F7F651"/>
</linearGradient>
<linearGradient id="paint1_linear_689_10236" x1="1450.18" y1="125.311" x2="-13.244" y2="2962.32" gradientUnits="userSpaceOnUse">
<stop stop-color="#ED374D"/>
<stop offset="0.505208" stop-color="#FA793F"/>
<stop offset="1" stop-color="#F7F651"/>
</linearGradient>
<linearGradient id="paint2_linear_689_10236" x1="747.511" y1="151.427" x2="-328.708" y2="3115.3" gradientUnits="userSpaceOnUse">
<stop stop-color="#ED374D"/>
<stop offset="0.505208" stop-color="#FA793F"/>
<stop offset="1" stop-color="#F7F651"/>
</linearGradient>
<linearGradient id="paint3_linear_689_10236" x1="296.05" y1="-107.089" x2="3076.1" y2="1456.04" gradientUnits="userSpaceOnUse">
<stop stop-color="#ED374D"/>
<stop offset="0.505208" stop-color="#FA793F"/>
<stop offset="1" stop-color="#F7F651"/>
</linearGradient>
<linearGradient id="paint4_linear_689_10236" x1="1262.48" y1="-653.689" x2="2725.9" y2="2183.32" gradientUnits="userSpaceOnUse">
<stop stop-color="#ED374D"/>
<stop offset="0.505208" stop-color="#FA793F"/>
<stop offset="1" stop-color="#F7F651"/>
</linearGradient>
<linearGradient id="paint5_linear_689_10236" x1="1965.15" y1="-627.573" x2="3041.37" y2="2336.3" gradientUnits="userSpaceOnUse">
<stop stop-color="#ED374D"/>
<stop offset="0.505208" stop-color="#FA793F"/>
<stop offset="1" stop-color="#F7F651"/>
</linearGradient>
<linearGradient id="paint6_linear_689_10236" x1="-750.179" y1="1860.53" x2="-91.4639" y2="-1322.88" gradientUnits="userSpaceOnUse">
<stop stop-color="#ED374D"/>
<stop offset="0.505208" stop-color="#FA793F"/>
<stop offset="1" stop-color="#F7F651"/>
</linearGradient>
<linearGradient id="paint7_linear_689_10236" x1="592.277" y1="1852.27" x2="1161.81" y2="-1390.5" gradientUnits="userSpaceOnUse">
<stop stop-color="#ED374D"/>
<stop offset="0.505208" stop-color="#FA793F"/>
<stop offset="1" stop-color="#F7F651"/>
</linearGradient>
<linearGradient id="paint8_linear_689_10236" x1="-769.758" y1="-666.315" x2="1547.44" y2="1525.19" gradientUnits="userSpaceOnUse">
<stop stop-color="#ED374D"/>
<stop offset="0.505208" stop-color="#FA793F"/>
<stop offset="1" stop-color="#F7F651"/>
</linearGradient>
<linearGradient id="paint9_linear_689_10236" x1="-1005.2" y1="418.727" x2="2138.16" y2="975.079" gradientUnits="userSpaceOnUse">
<stop stop-color="#ED374D"/>
<stop offset="0.505208" stop-color="#FA793F"/>
<stop offset="1" stop-color="#F7F651"/>
</linearGradient>
<linearGradient id="paint10_linear_689_10236" x1="-771.897" y1="1082.05" x2="2377.81" y2="1230.99" gradientUnits="userSpaceOnUse">
<stop stop-color="#ED374D"/>
<stop offset="0.505208" stop-color="#FA793F"/>
<stop offset="1" stop-color="#F7F651"/>
</linearGradient>
<linearGradient id="paint11_linear_689_10236" x1="-522.43" y1="1025.89" x2="2579.89" y2="285.828" gradientUnits="userSpaceOnUse">
<stop stop-color="#ED374D"/>
<stop offset="0.505208" stop-color="#FA793F"/>
<stop offset="1" stop-color="#F7F651"/>
</linearGradient>
<linearGradient id="paint12_linear_689_10236" x1="256.855" y1="1816.75" x2="2442.76" y2="-509.638" gradientUnits="userSpaceOnUse">
<stop stop-color="#ED374D"/>
<stop offset="0.505208" stop-color="#FA793F"/>
<stop offset="1" stop-color="#F7F651"/>
</linearGradient>
<linearGradient id="paint13_linear_689_10236" x1="939.708" y1="1984.5" x2="2788.09" y2="-570.161" gradientUnits="userSpaceOnUse">
<stop stop-color="#ED374D"/>
<stop offset="0.505208" stop-color="#FA793F"/>
<stop offset="1" stop-color="#F7F651"/>
</linearGradient>
</defs>
</svg>
