<svg width="512" height="512" version="1.1" xmlns="http://www.w3.org/2000/svg" desc="Created with imagetracer.js version 1.2.6" ><path fill="rgb(0,0,0)" stroke="rgb(0,0,0)" stroke-width="1" opacity="0.8117647058823529" d="M 108.5 0 L 114 0.5 L 108.5 1 L 108.5 0 Z " /><path fill="rgb(0,0,0)" stroke="rgb(0,0,0)" stroke-width="1" opacity="0.8117647058823529" d="M 302.5 0 L 307 0.5 L 302.5 1 L 302.5 0 Z " /><path fill="rgb(0,0,0)" stroke="rgb(0,0,0)" stroke-width="1" opacity="0.8117647058823529" d="M 310.5 1 L 313 1.5 L 310.5 2 L 310.5 1 Z " /><path fill="rgb(0,0,0)" stroke="rgb(0,0,0)" stroke-width="1" opacity="0.8117647058823529" d="M 325.5 6 L 326.5 8 L 325.5 6 Z " /><path fill="rgb(0,0,0)" stroke="rgb(0,0,0)" stroke-width="1" opacity="0.8117647058823529" d="M 88.5 7 L 87.5 9 L 88.5 7 Z " /><path fill="rgb(0,0,0)" stroke="rgb(0,0,0)" stroke-width="1" opacity="0.8117647058823529" d="M 330.5 9 L 331.5 11 L 330.5 9 Z " /><path fill="rgb(0,0,0)" stroke="rgb(0,0,0)" stroke-width="1" opacity="0.8117647058823529" d="M 82.5 11 L 79.5 15 L 82.5 11 Z " /><path fill="rgb(0,0,0)" stroke="rgb(0,0,0)" stroke-width="1" opacity="0.8117647058823529" d="M 334.5 12 L 340.5 19 L 334.5 12 Z " /><path fill="rgb(0,0,0)" stroke="rgb(0,0,0)" stroke-width="1" opacity="0.8117647058823529" d="M 75.5 18 L 72.5 22 L 75.5 18 Z " /><path fill="rgb(0,0,0)" stroke="rgb(0,0,0)" stroke-width="1" opacity="0.8117647058823529" d="M 348.5 25 L 359.5 37 L 348.5 25 Z " /><path fill="rgb(0,0,0)" stroke="rgb(0,0,0)" stroke-width="1" opacity="0.8117647058823529" d="M 69.5 26 L 68.5 28 L 69.5 26 Z " /><path fill="rgb(0,0,0)" stroke="rgb(0,0,0)" stroke-width="1" opacity="0.8117647058823529" d="M 109.5 30 L 112 30.5 L 109.5 31 L 109.5 30 Z " /><path fill="rgb(0,0,0)" stroke="rgb(0,0,0)" stroke-width="1" opacity="0.8117647058823529" d="M 101.5 34 L 100.5 36 L 101.5 34 Z " /><path fill="rgb(0,0,0)" stroke="rgb(0,0,0)" stroke-width="1" opacity="0.8117647058823529" d="M 96.5 39 L 95.5 41 L 96.5 39 Z " /><path fill="rgb(0,0,0)" stroke="rgb(0,0,0)" stroke-width="1" opacity="0.8117647058823529" d="M 366.5 42 L 377.5 54 L 366.5 42 Z " /><path fill="rgb(0,0,0)" stroke="rgb(0,0,0)" stroke-width="1" opacity="0.8117647058823529" d="M 326.5 45 L 337.5 57 L 326.5 45 Z " /><path fill="rgb(0,0,0)" stroke="rgb(0,0,0)" stroke-width="1" opacity="0.8117647058823529" d="M 61.5 47 L 62 52.5 L 61 52.5 L 61.5 47 Z " /><path fill="rgb(0,0,0)" stroke="rgb(0,0,0)" stroke-width="1" opacity="0.8117647058823529" d="M 91.5 48 L 92 50.5 L 91 50.5 L 91.5 48 Z " /><path fill="rgb(0,0,0)" stroke="rgb(0,0,0)" stroke-width="1" opacity="0.8117647058823529" d="M 385.5 60 L 396.5 72 L 385.5 60 Z " /><path fill="rgb(0,0,0)" stroke="rgb(0,0,0)" stroke-width="1" opacity="0.8117647058823529" d="M 345.5 63 L 356.5 75 L 345.5 63 Z " /><path fill="rgb(0,0,0)" stroke="rgb(0,0,0)" stroke-width="1" opacity="0.8117647058823529" d="M 403.5 77 L 414.5 89 L 403.5 77 Z " /><path fill="rgb(0,0,0)" stroke="rgb(0,0,0)" stroke-width="1" opacity="0.8117647058823529" d="M 363.5 80 L 375.5 93 L 363.5 80 Z " /><path fill="rgb(0,0,0)" stroke="rgb(0,0,0)" stroke-width="1" opacity="0.8117647058823529" d="M 422.5 95 L 438.5 112 L 422.5 95 Z " /><path fill="rgb(0,0,0)" stroke="rgb(0,0,0)" stroke-width="1" opacity="0.8117647058823529" d="M 382.5 98 L 393.5 110 L 382.5 98 Z " /><path fill="rgb(0,0,0)" stroke="rgb(0,0,0)" stroke-width="1" opacity="0.8117647058823529" d="M 440.5 114 L 441.5 116 L 440.5 114 Z " /><path fill="rgb(0,0,0)" stroke="rgb(0,0,0)" stroke-width="1" opacity="0.8117647058823529" d="M 400.5 115 L 404.5 120 L 400.5 115 Z " /><path fill="rgb(0,0,0)" stroke="rgb(0,0,0)" stroke-width="1" opacity="0.8117647058823529" d="M 295.5 117 L 296 120.5 L 295 120.5 L 295.5 117 Z " /><path fill="rgb(0,0,0)" stroke="rgb(0,0,0)" stroke-width="1" opacity="0.8117647058823529" d="M 325.5 117 L 327.5 120 L 325.5 117 Z " /><path fill="rgb(0,0,0)" stroke="rgb(0,0,0)" stroke-width="1" opacity="0.8117647058823529" d="M 442.5 117 L 443.5 119 L 442.5 117 Z " /><path fill="rgb(0,0,0)" stroke="rgb(0,0,0)" stroke-width="1" opacity="0.8117647058823529" d="M 302.5 136 L 308.5 143 L 302.5 136 Z " /><path fill="rgb(0,0,0)" stroke="rgb(0,0,0)" stroke-width="1" opacity="0.8117647058823529" d="M 450.5 139 L 451 144.5 L 450 144.5 L 450.5 139 Z " /><path fill="rgb(0,0,0)" stroke="rgb(0,0,0)" stroke-width="1" opacity="0.8117647058823529" d="M 324.5 149 L 328 149.5 L 324.5 150 L 324.5 149 Z " /><path fill="rgb(0,0,0)" stroke="rgb(0,0,0)" stroke-width="1" opacity="0.8117647058823529" d="M 136.5 201 L 135.5 203 L 136.5 201 Z " /><path fill="rgb(0,0,0)" stroke="rgb(0,0,0)" stroke-width="1" opacity="0.8117647058823529" d="M 369.5 201 L 370.5 203 L 369.5 201 Z " /><path fill="rgb(0,0,0)" stroke="rgb(0,0,0)" stroke-width="1" opacity="0.8117647058823529" d="M 133.5 203 L 131.5 206 L 133.5 203 Z " /><path fill="rgb(0,0,0)" stroke="rgb(0,0,0)" stroke-width="1" opacity="0.8117647058823529" d="M 372.5 203 L 374.5 206 L 372.5 203 Z " /><path fill="rgb(0,0,0)" stroke="rgb(0,0,0)" stroke-width="1" opacity="0.8117647058823529" d="M 130.5 207 L 129.5 209 L 130.5 207 Z " /><path fill="rgb(0,0,0)" stroke="rgb(0,0,0)" stroke-width="1" opacity="0.8117647058823529" d="M 375.5 207 L 376.5 209 L 375.5 207 Z " /><path fill="rgb(0,0,0)" stroke="rgb(0,0,0)" stroke-width="1" opacity="0.8117647058823529" d="M 129.5 221 L 130.5 223 L 129.5 221 Z " /><path fill="rgb(0,0,0)" stroke="rgb(0,0,0)" stroke-width="1" opacity="0.8117647058823529" d="M 376.5 221 L 375.5 223 L 376.5 221 Z " /><path fill="rgb(0,0,0)" stroke="rgb(0,0,0)" stroke-width="1" opacity="0.8117647058823529" d="M 131.5 224 L 133.5 227 L 131.5 224 Z " /><path fill="rgb(0,0,0)" stroke="rgb(0,0,0)" stroke-width="1" opacity="0.8117647058823529" d="M 374.5 224 L 372.5 227 L 374.5 224 Z " /><path fill="rgb(0,0,0)" stroke="rgb(0,0,0)" stroke-width="1" opacity="0.8117647058823529" d="M 135.5 227 L 136.5 229 L 135.5 227 Z " /><path fill="rgb(0,0,0)" stroke="rgb(0,0,0)" stroke-width="1" opacity="0.8117647058823529" d="M 370.5 227 L 369.5 229 L 370.5 227 Z " /><path fill="rgb(0,0,0)" stroke="rgb(0,0,0)" stroke-width="1" opacity="0.8117647058823529" d="M 136.5 281 L 135.5 283 L 136.5 281 Z " /><path fill="rgb(0,0,0)" stroke="rgb(0,0,0)" stroke-width="1" opacity="0.8117647058823529" d="M 369.5 281 L 370.5 283 L 369.5 281 Z " /><path fill="rgb(0,0,0)" stroke="rgb(0,0,0)" stroke-width="1" opacity="0.8117647058823529" d="M 133.5 283 L 131.5 286 L 133.5 283 Z " /><path fill="rgb(0,0,0)" stroke="rgb(0,0,0)" stroke-width="1" opacity="0.8117647058823529" d="M 372.5 283 L 374.5 286 L 372.5 283 Z " /><path fill="rgb(0,0,0)" stroke="rgb(0,0,0)" stroke-width="1" opacity="0.8117647058823529" d="M 130.5 287 L 129.5 289 L 130.5 287 Z " /><path fill="rgb(0,0,0)" stroke="rgb(0,0,0)" stroke-width="1" opacity="0.8117647058823529" d="M 375.5 287 L 376.5 289 L 375.5 287 Z " /><path fill="rgb(0,0,0)" stroke="rgb(0,0,0)" stroke-width="1" opacity="0.8117647058823529" d="M 129.5 301 L 130.5 303 L 129.5 301 Z " /><path fill="rgb(0,0,0)" stroke="rgb(0,0,0)" stroke-width="1" opacity="0.8117647058823529" d="M 376.5 301 L 375.5 303 L 376.5 301 Z " /><path fill="rgb(0,0,0)" stroke="rgb(0,0,0)" stroke-width="1" opacity="0.8117647058823529" d="M 131.5 304 L 133.5 307 L 131.5 304 Z " /><path fill="rgb(0,0,0)" stroke="rgb(0,0,0)" stroke-width="1" opacity="0.8117647058823529" d="M 374.5 304 L 372.5 307 L 374.5 304 Z " /><path fill="rgb(0,0,0)" stroke="rgb(0,0,0)" stroke-width="1" opacity="0.8117647058823529" d="M 135.5 307 L 136.5 309 L 135.5 307 Z " /><path fill="rgb(0,0,0)" stroke="rgb(0,0,0)" stroke-width="1" opacity="0.8117647058823529" d="M 370.5 307 L 369.5 309 L 370.5 307 Z " /><path fill="rgb(0,0,0)" stroke="rgb(0,0,0)" stroke-width="1" opacity="0.8117647058823529" d="M 217.5 360 L 220 360.5 L 217.5 361 L 217.5 360 Z " /><path fill="rgb(0,0,0)" stroke="rgb(0,0,0)" stroke-width="1" opacity="0.8117647058823529" d="M 136.5 361 L 135.5 363 L 136.5 361 Z " /><path fill="rgb(0,0,0)" stroke="rgb(0,0,0)" stroke-width="1" opacity="0.8117647058823529" d="M 133.5 363 L 131.5 366 L 133.5 363 Z " /><path fill="rgb(0,0,0)" stroke="rgb(0,0,0)" stroke-width="1" opacity="0.8117647058823529" d="M 130.5 367 L 129.5 369 L 130.5 367 Z " /><path fill="rgb(0,0,0)" stroke="rgb(0,0,0)" stroke-width="1" opacity="0.8117647058823529" d="M 230.5 372 L 231 377.5 L 230 377.5 L 230.5 372 Z " /><path fill="rgb(0,0,0)" stroke="rgb(0,0,0)" stroke-width="1" opacity="0.8117647058823529" d="M 129.5 381 L 130.5 383 L 129.5 381 Z " /><path fill="rgb(0,0,0)" stroke="rgb(0,0,0)" stroke-width="1" opacity="0.8117647058823529" d="M 131.5 384 L 133.5 387 L 131.5 384 Z " /><path fill="rgb(0,0,0)" stroke="rgb(0,0,0)" stroke-width="1" opacity="0.8117647058823529" d="M 135.5 387 L 136.5 389 L 135.5 387 Z " /><path fill="rgb(0,0,0)" stroke="rgb(0,0,0)" stroke-width="1" opacity="0.8117647058823529" d="M 217.5 389 L 220 389.5 L 217.5 390 L 217.5 389 Z " /><path fill="rgb(0,0,0)" stroke="rgb(0,0,0)" stroke-width="1" opacity="0.8117647058823529" d="M 61.5 459 L 62 464.5 L 61 464.5 L 61.5 459 Z " /><path fill="rgb(0,0,0)" stroke="rgb(0,0,0)" stroke-width="1" opacity="0.8117647058823529" d="M 450.5 459 L 451 464.5 L 450 464.5 L 450.5 459 Z " /><path fill="rgb(0,0,0)" stroke="rgb(0,0,0)" stroke-width="1" opacity="0.8117647058823529" d="M 91.5 461 L 92 463.5 L 91 463.5 L 91.5 461 Z " /><path fill="rgb(0,0,0)" stroke="rgb(0,0,0)" stroke-width="1" opacity="0.8117647058823529" d="M 420.5 461 L 421 463.5 L 420 463.5 L 420.5 461 Z " /><path fill="rgb(0,0,0)" stroke="rgb(0,0,0)" stroke-width="1" opacity="0.8117647058823529" d="M 95.5 471 L 96.5 473 L 95.5 471 Z " /><path fill="rgb(0,0,0)" stroke="rgb(0,0,0)" stroke-width="1" opacity="0.8117647058823529" d="M 416.5 471 L 415.5 473 L 416.5 471 Z " /><path fill="rgb(0,0,0)" stroke="rgb(0,0,0)" stroke-width="1" opacity="0.8117647058823529" d="M 100.5 476 L 101.5 478 L 100.5 476 Z " /><path fill="rgb(0,0,0)" stroke="rgb(0,0,0)" stroke-width="1" opacity="0.8117647058823529" d="M 411.5 476 L 410.5 478 L 411.5 476 Z " /><path fill="rgb(0,0,0)" stroke="rgb(0,0,0)" stroke-width="1" opacity="0.8117647058823529" d="M 109.5 481 L 112 481.5 L 109.5 482 L 109.5 481 Z " /><path fill="rgb(0,0,0)" stroke="rgb(0,0,0)" stroke-width="1" opacity="0.8117647058823529" d="M 400.5 481 L 403 481.5 L 400.5 482 L 400.5 481 Z " /><path fill="rgb(0,0,0)" stroke="rgb(0,0,0)" stroke-width="1" opacity="0.8117647058823529" d="M 68.5 484 L 69.5 486 L 68.5 484 Z " /><path fill="rgb(0,0,0)" stroke="rgb(0,0,0)" stroke-width="1" opacity="0.8117647058823529" d="M 443.5 484 L 442.5 486 L 443.5 484 Z " /><path fill="rgb(0,0,0)" stroke="rgb(0,0,0)" stroke-width="1" opacity="0.8117647058823529" d="M 70.5 487 L 71.5 489 L 70.5 487 Z " /><path fill="rgb(0,0,0)" stroke="rgb(0,0,0)" stroke-width="1" opacity="0.8117647058823529" d="M 72.5 490 L 75.5 494 L 72.5 490 Z " /><path fill="rgb(0,0,0)" stroke="rgb(0,0,0)" stroke-width="1" opacity="0.8117647058823529" d="M 439.5 490 L 436.5 494 L 439.5 490 Z " /><path fill="rgb(0,0,0)" stroke="rgb(0,0,0)" stroke-width="1" opacity="0.8117647058823529" d="M 79.5 497 L 82.5 501 L 79.5 497 Z " /><path fill="rgb(0,0,0)" stroke="rgb(0,0,0)" stroke-width="1" opacity="0.8117647058823529" d="M 432.5 497 L 429.5 501 L 432.5 497 Z " /><path fill="rgb(0,0,0)" stroke="rgb(0,0,0)" stroke-width="1" opacity="0.8117647058823529" d="M 84.5 501 L 85.5 503 L 84.5 501 Z " /><path fill="rgb(0,0,0)" stroke="rgb(0,0,0)" stroke-width="1" opacity="0.8117647058823529" d="M 87.5 503 L 88.5 505 L 87.5 503 Z " /><path fill="rgb(0,0,0)" stroke="rgb(0,0,0)" stroke-width="1" opacity="0.8117647058823529" d="M 424.5 503 L 423.5 505 L 424.5 503 Z " /><path fill="rgb(0,0,0)" stroke="rgb(0,0,0)" stroke-width="1" opacity="0.8117647058823529" d="M 108.5 511 L 114 511.5 L 108.5 512 L 108.5 511 Z " /><path fill="rgb(0,0,0)" stroke="rgb(0,0,0)" stroke-width="1" opacity="0.8117647058823529" d="M 398.5 511 L 404 511.5 L 398.5 512 L 398.5 511 Z " /><path fill="rgb(0,0,0)" stroke="rgb(0,0,0)" stroke-width="1" opacity="1" d="M 114.5 0 L 301.5 0 L 317.5 3 Q 332 8.5 341.5 19 L 440 113.5 L 448 128.5 L 451 145.5 L 451 458.5 L 450 459.5 L 450 467.5 L 447 477.5 Q 442.2 489.2 433.5 497 L 416.5 508 L 406.5 511 L 398.5 511 L 397.5 512 L 114.5 512 L 113.5 511 L 105.5 511 L 95.5 508 Q 84.2 502.8 76 494.5 L 65 477.5 L 62 467.5 L 62 459.5 L 61 458.5 L 61 53.5 L 62 52.5 L 62 44.5 L 65 34.5 Q 69.8 22.8 78.5 15 L 95.5 4 L 105.5 1 L 113.5 1 L 114.5 0 Z M 110 30 L 102 34 Q 94 39 91 49 L 91 464 L 95 472 Q 100 479 110 482 L 403 482 L 411 478 Q 418 473 421 464 L 421 150 L 329 150 L 319 148 L 311 144 L 301 135 L 296 124 Q 298 118 295 117 L 295 30 L 110 30 Z M 325 45 L 325 118 L 328 120 L 405 120 L 327 45 L 325 45 Z " /><path fill="rgb(0,0,0)" stroke="rgb(0,0,0)" stroke-width="1" opacity="1" d="M 141.5 200 L 364.5 200 Q 371.9 201.1 375 206.5 Q 378.3 209.7 378 216.5 Q 376.9 223.9 371.5 227 L 364.5 230 L 141.5 230 Q 134.1 228.9 131 223.5 Q 127.7 220.3 128 213.5 Q 129.1 206.1 134.5 203 L 141.5 200 Z " /><path fill="rgb(0,0,0)" stroke="rgb(0,0,0)" stroke-width="1" opacity="1" d="M 141.5 280 L 364.5 280 Q 371.9 281.1 375 286.5 Q 378.3 289.7 378 296.5 Q 376.9 303.9 371.5 307 L 364.5 310 L 141.5 310 Q 134.1 308.9 131 303.5 Q 127.7 300.3 128 293.5 Q 129.1 286.1 134.5 283 L 141.5 280 Z " /><path fill="rgb(0,0,0)" stroke="rgb(0,0,0)" stroke-width="1" opacity="1" d="M 141.5 360 L 216.5 360 Q 224.3 361.2 228 366.5 Q 231.5 370.5 230 379.5 L 224.5 387 L 216.5 390 L 141.5 390 Q 134.1 388.9 131 383.5 Q 127.7 380.3 128 373.5 Q 129.1 366.1 134.5 363 L 141.5 360 Z " /><path fill="rgb(0,0,0)" stroke="rgb(0,0,0)" stroke-width="1" opacity="0" d="M 0 0 L 108 0.5 Q 83.8 4.8 72 21.5 Q 63.8 31.8 61 47.5 L 61 464.5 Q 65.7 488.8 82.5 501 Q 92.3 509.2 108 511.5 L 0 512 L 0 0 Z " /><path fill="rgb(0,0,0)" stroke="rgb(0,0,0)" stroke-width="1" opacity="0" d="M 307.5 0 L 512 0 L 512 512 L 404 511.5 Q 428.2 507.2 440 490.5 Q 448.2 480.2 451 464.5 L 451 139.5 Q 448.8 138.3 450 133.5 L 444 118.5 Q 435.1 104.9 422.5 95 L 334.5 12 L 323.5 5 L 312.5 1 L 307.5 1 L 307.5 0 Z " /><path fill="rgb(0,0,0)" stroke="rgb(0,0,0)" stroke-width="1" opacity="0" d="M 112.5 30 L 295 30 L 295 120.5 Q 298.3 135.3 308.5 143 Q 314.9 148.1 324.5 150 L 421 150 L 421 460.5 Q 419.3 470.8 412.5 476 Q 407.7 480.7 399.5 482 L 112.5 482 Q 102.3 480.3 97 473.5 Q 92.3 468.7 91 460.5 L 91 51.5 Q 92.8 41.3 99.5 36 Q 104.3 31.3 112.5 30 Z M 140 200 L 134 203 L 128 212 Q 127 221 131 225 L 140 230 L 367 230 L 373 227 L 378 219 Q 379 209 375 206 L 367 200 L 140 200 Z M 140 280 L 134 283 L 128 292 Q 127 301 131 305 L 140 310 L 367 310 L 373 307 L 378 299 Q 379 289 375 286 L 367 280 L 140 280 Z M 140 360 L 134 363 L 128 372 Q 127 381 131 385 L 140 390 L 220 390 L 224 388 Q 229 385 231 378 Q 232 371 229 368 L 220 360 L 140 360 Z " /><path fill="rgb(0,0,0)" stroke="rgb(0,0,0)" stroke-width="1" opacity="0" d="M 325.5 45 L 404 119.5 L 328.5 120 L 325 116.5 L 325.5 45 Z " /></svg>